<?xml version="1.0" encoding="UTF-8"?>
<svg width="1200pt" height="1200pt" version="1.1" viewBox="0 0 1200 1200" xmlns="http://www.w3.org/2000/svg">
 <path d="m1022.1 447.09-18.84 18.852c-15.91 15.898-27.48 11.605-40.008 0.22656l8.5781-8.5664c27.457-27.469 27.457-71.988 0-99.445l-144.21-144.21c-27.469-27.469-71.988-27.469-99.469 0l-8.2695 8.2812-7.2734-7.2734c-23.578-23.594-23.797-14.102 0.875-38.773l18.84-18.84-46.703-46.727-575.73 575.72 53.039 53.039 18.863-18.852c15.898-15.887 27.48-11.578 39.996-0.21484l-5.8203 5.7969c-27.469 27.48-27.469 72 0 99.469l144.2 144.21c27.469 27.457 72 27.457 99.457 0l5.543-5.5312 7.2617 7.2734c23.578 23.566 23.785 14.09-0.88672 38.762l-18.84 18.852 46.715 46.715 575.72-575.73zm-259.15 50.289c-22.223 22.234-50.387 32.293-71.93 27.863l-59.496 59.496c8.4258 8.4102 5.2422 25.262-7.1172 37.621-12.371 12.359-29.207 15.551-37.633 7.1406l-59.484 59.484c4.4141 21.539-5.6406 49.715-27.875 71.941-22.246 22.246-50.41 32.305-71.953 27.875l-59.484 59.496 55.188 55.188c10.078 10.066 10.078 26.387 0 36.457-10.066 10.066-26.387 10.066-36.457 0l-140.9-140.88c-10.055-10.078-10.055-26.398 0-36.469 10.078-10.066 26.398-10.066 36.48 0l55.188 55.188 59.484-59.484c-4.4297-21.539 5.6406-49.727 27.875-71.953 22.234-22.234 50.398-32.293 71.941-27.875l59.484-59.484c-8.4102-8.4258-5.2305-25.262 7.1289-37.633 12.359-12.348 29.219-15.539 37.633-7.1289l59.496-59.484c-4.4297-21.539 5.6523-49.703 27.863-71.941 22.246-22.246 50.41-32.305 71.953-27.875l62.797-62.797-55.188-55.188c-10.078-10.066-10.078-26.398 0-36.469 10.066-10.078 26.387-10.078 36.457 0l140.89 140.89c10.078 10.066 10.078 26.387 0 36.457-10.066 10.078-26.387 10.078-36.469 0l-55.188-55.188-62.797 62.797c4.4297 21.543-5.6406 49.719-27.887 71.953z" fill="#9ca3af"/>
</svg>
